<svg height="512" viewBox="0 0 512 512" width="512" xmlns="http://www.w3.org/2000/svg"><g fill="none" fill-rule="evenodd" transform="translate(85 44)"><g fill="#4285f4"><path d="m172 0v42h-130v339h130v43h-129.96125c-23.005125 0-41.66228137-18.700308-42.03312399-41.701687l-.00562601-.698313v-339.2c0-23.32 19.0125-42.4 42.25-42.4z" fill-rule="nonzero"/><path d="m85 297h87v42h-87z" fill-rule="nonzero"/><path d="m85 212h87v42h-87z" fill-rule="nonzero"/><path d="m85 127h87v42h-87z" fill-rule="nonzero"/><circle cx="281.508197" cy="382.295082" r="30.120219" transform="matrix(1 0 0 -1 0 764.590164)"/><circle cx="311.120219" cy="169.136612" r="30.120219" transform="matrix(1 0 0 -1 0 338.273224)"/><circle cx="247.120219" cy="42.863388" r="30.120219"/></g><path d="m195 148h17c40 0 35-16 35-91" stroke="#4285f4" stroke-width="18"/><path d="m195 233h17c79 0 99 6 98-54" stroke="#4285f4" stroke-width="18"/><path d="m195 371.551661h13c69.118324.165975 74.845929 5.975092 74.08991-53.775831" stroke="#4285f4" stroke-width="18" transform="matrix(1 0 0 -1 0 689.55166)"/></g></svg>